<svg xmlns="http://www.w3.org/2000/svg" width="64.001" height="64">
  <path fill="none" d="M0 0H64.001V64H0z"/>
  <linearGradient id="a" gradientUnits="userSpaceOnUse" x1="196.4878" y1="-51.1158" x2="213.9881" y2="-68.6161" gradientTransform="scale(-1.05 1.05) rotate(-45 216.3452 261.4473)">
    <stop offset="0" stop-color="#948983"/>
    <stop offset="1" stop-color="#b9ada7"/>
  </linearGradient>
  <path fill="url(#a)" d="M18.537,31.208L37.329,50c-5.729,5.265-12.071,7.192-15.474,7.192c-1.095,0-2.756-0.21-3.588-1.101 l-16.01-16.01c-0.611-0.611-0.211-1.638,0.651-1.702C8.604,37.951,14.18,35.564,18.537,31.208z"/>
  <linearGradient id="b" gradientUnits="userSpaceOnUse" x1="21.4183" y1="48.4644" x2="21.4183" y2="4.3958" gradientTransform="matrix(-1 0 0 1 64.003 0)">
    <stop offset="0" stop-color="#1063ad"/>
    <stop offset="1" stop-color="#529ad6"/>
  </linearGradient>
  <path fill="url(#b)" d="M23.132,26.612l18.794,18.794l0.828-0.829c1.089-1.111,1.246-2.795,0.562-4.271 c-1.004-2.24-2.78-5.832-0.383-8.23c0.226-0.225,16.369-14.21,16.632-14.473l0.688-0.688c2.314-2.314,2.375-6.019,0.197-8.415 c0,0-0.161-0.182-0.196-0.218l0,0c-0.035-0.035-0.218-0.197-0.218-0.197c-2.396-2.178-6.101-2.117-8.415,0.197l-0.688,0.688 C50.67,9.235,36.686,25.378,36.461,25.604c-2.397,2.397-5.99,0.621-8.23-0.382c-1.476-0.683-3.16-0.527-4.271,0.562L23.132,26.612 z M54.504,10.589c0.952-0.952,2.494-0.952,3.446,0s0.952,2.494,0,3.446s-2.494,0.952-3.446,0 C53.552,13.083,53.552,11.54,54.504,10.589z"/>
  <path opacity=".7" fill="#948983" d="M18.537,31.208L37.329,50c-0.818,0.752-1.648,1.428-2.481,2.048L16.113,33.312 C16.952,32.666,17.768,31.976,18.537,31.208z"/>
  <path transform="rotate(-135 30.2303 38.3063)" fill="#DADAE2" d="M16.942 35.057H43.518V41.555H16.942z"/>
</svg>
