<svg xmlns="http://www.w3.org/2000/svg" width="64.001" height="64">
  <path fill="none" stroke="#6C6C6C" stroke-width="3" stroke-linecap="round" stroke-miterlimit="10" d="M48.41,25.586 c0,2.809,2.277,5.087,5.087,5.087c2.809,0,5.087-2.277,5.087-5.087c0-2.809-2.277-5.087-5.087-5.087V9.001"/>
  <linearGradient id="a" gradientUnits="userSpaceOnUse" x1="33.4962" y1="31.1591" x2="33.4962" y2="-19.8768">
    <stop offset="0" stop-color="#a6a6ae"/>
    <stop offset="1" stop-color="#dadae2"/>
  </linearGradient>
  <path fill="url(#a)" d="M61.856,7.462c-0.16,0.375-0.466,0.67-0.848,0.814L21.361,23.327L18.033,9.412L58.74,1.96 c0.69-0.128,1.375,0.243,1.65,0.887l1.466,3.438C62.016,6.661,62.016,7.086,61.856,7.462z M5.016,23.537v31.462h12.982V23.537 H5.016z"/>
  <path fill="#A6A6AE" d="M3.528,26.021h17.74c0.453,0,0.882-0.205,1.167-0.558c0.285-0.352,0.395-0.814,0.3-1.257L19.297,8.186 C19.149,7.494,18.538,7,17.83,7H3.528c-0.829,0-1.5,0.672-1.5,1.5v16.021C2.028,25.35,2.7,26.021,3.528,26.021z"/>
  <path fill="#808083" d="M33.486,52.989H3.519c-0.829,0-1.5,0.672-1.5,1.5V62h32.966v-7.51 C34.986,53.661,34.314,52.989,33.486,52.989z"/>
  <path opacity=".7" fill="#808083" d="M5.016 26.021H17.997999999999998V28.021H5.016z"/>
</svg>
