<svg xmlns="http://www.w3.org/2000/svg" width="64.001" height="64">
  <path fill="none" d="M0 0H64.001V64H0z"/>
  <linearGradient id="a" gradientUnits="userSpaceOnUse" x1="-166.8658" y1="1526.6628" x2="-213.6318" y2="1573.4288" gradientTransform="scale(1 -1) rotate(-45 -1982.2689 489.3917)">
    <stop offset="0" stop-color="#218076"/>
    <stop offset="1" stop-color="#1bada2"/>
  </linearGradient>
  <path fill="url(#a)" d="M7.426,45.7l43-43c0.8-0.8,2.1-0.8,2.8,0l8.5,8.5c0.8,0.8,0.8,2.1,0,2.8l-43,43L7.426,45.7z"/>
  <path fill="#B9ADA7" d="M7.426,45.7l-4.9,14c0,0-0.1,0.399-0.1,0.6s0,0.4,0.1,0.601c0.1,0.199,0.2,0.399,0.4,0.6 c0.2,0.2,0.4,0.3,0.6,0.4c0.2,0.1,0.4,0.1,0.6,0.1c0.2,0,0.6-0.1,0.6-0.1l14-4.9L7.426,45.7z"/>
  <linearGradient id="b" gradientUnits="userSpaceOnUse" x1="2.4185" y1="58.2998" x2="9.8484" y2="58.2998">
    <stop offset="0" stop-color="#4c4c4c"/>
    <stop offset="1" stop-color="#7a7a7a"/>
  </linearGradient>
  <path fill="url(#b)" d="M2.542,59.679c-0.082,0.203-0.123,0.42-0.123,0.636c0,0.217,0.041,0.434,0.123,0.637 c0.083,0.204,0.207,0.396,0.373,0.561c0.165,0.165,0.356,0.289,0.559,0.372c0.204,0.082,0.421,0.124,0.637,0.124 c0.217,0,0.433-0.042,0.637-0.124l5.086-1.773l-5.518-5.519L2.542,59.679z"/>
</svg>
