<svg xmlns="http://www.w3.org/2000/svg" width="64.001" height="64">
  <path fill="none" d="M0 0H64.001V64H0z"/>
  <path fill="#F05C51" d="M22.001,60c-1.1,0-2.636-0.636-3.414-1.414L2.915,42.914c-0.778-0.778-0.778-2.051,0-2.828L36.587,6.414 c0.778-0.778,2.051-0.778,2.828,0l20.172,20.172c0.778,0.778,0.778,2.051,0,2.828L30.415,58.586 C29.637,59.364,28.101,60,27.001,60H22.001z"/>
  <path opacity=".6" fill="#D52B1E" d="M32.001,57l-1.586,1.586C29.637,59.364,28.101,60,27.001,60h-5 c-1.1,0-2.636-0.636-3.414-1.414L2.915,42.914c-0.778-0.778-0.778-2.051,0-2.828L9.001,34L32.001,57z"/>
  <path fill="#427CAC" d="M49.001,40l12.086-12.086c0.778-0.778,0.778-2.051,0-2.828L40.915,4.914c-0.778-0.778-2.051-0.778-2.828,0 L26.001,17L49.001,40z"/>
  <path fill="#EDEDED" d="M6.001,37l-1.5,1.5l21.5,21.5h1c0.498,0,1.084-0.135,1.65-0.35L6.001,37z"/>
</svg>
