<svg xmlns="http://www.w3.org/2000/svg" width="64.001" height="64">
  <path fill="none" d="M0 0H64.001V64H0z"/>
  <linearGradient id="a" gradientUnits="userSpaceOnUse" x1="16.1731" y1="59.9902" x2="16.1731" y2="31.6028">
    <stop offset="0" stop-color="#4c4c4c"/>
    <stop offset="1" stop-color="#7a7a7a"/>
  </linearGradient>
  <path fill="url(#a)" d="M8.025,59.99c-1.024,0-2.047-0.391-2.829-1.172c-1.562-1.562-1.562-4.095,0-5.656l16.295-16.295 c1.563-1.562,4.095-1.562,5.657,0c1.562,1.562,1.562,4.095,0,5.656L10.854,58.818C10.073,59.6,9.049,59.99,8.025,59.99z"/>
  <path opacity=".4" fill="#4B4B4B" d="M21.492,36.867l-5.001,5c1.624,2.148,3.461,4.084,5.717,5.597l4.94-4.941 c1.562-1.562,1.562-4.095,0-5.656C25.587,35.306,23.055,35.305,21.492,36.867z"/>
  <path fill="#D4EEFC" d="M37.017,4c-12.7,0-23,10.3-23,23c0,5,1.6,9.7,4.3,13.4c1.5,2,3.2,3.8,5.3,5.199 c3.8,2.801,8.4,4.4,13.4,4.4c12.699,0,23-10.3,23-23S49.716,4,37.017,4z"/>
  <path fill="#317CB3" d="M37.017,9.6c10.199,0,18.5,8.101,19,18.2c0-0.3,0-0.5,0-0.8c0-10.5-8.5-19-19-19s-19,8.5-19,19 c0,0.3,0,0.5,0,0.8C18.517,17.7,26.816,9.6,37.017,9.6z" opacity=".25"/>
  <linearGradient id="b" gradientUnits="userSpaceOnUse" x1="12.0718" y1="-1489.1914" x2="12.0718" y2="-1442.2994" gradientTransform="matrix(1 0 0 -1 24.9448 -1439.1914)">
    <stop offset="0" stop-color="#a6a6ae"/>
    <stop offset="1" stop-color="#dadae2"/>
  </linearGradient>
  <path fill="url(#b)" d="M37.017,8c10.5,0,19,8.5,19,19s-8.5,19-19,19c-4,0-7.8-1.2-11.101-3.6 c-1.699-1.2-3.1-2.7-4.3-4.301c-2.399-3.3-3.6-7.1-3.6-11.1C18.017,16.5,26.517,8,37.017,8 M37.017,4c-12.7,0-23,10.3-23,23 c0,5,1.6,9.7,4.3,13.4c1.5,2,3.2,3.8,5.3,5.199c3.8,2.801,8.4,4.4,13.4,4.4c12.699,0,23-10.3,23-23S49.716,4,37.017,4L37.017,4z"/>
</svg>
