<svg xmlns="http://www.w3.org/2000/svg" viewBox="0 0 53.6726 140.4517"><defs><style>.cls-1{isolation:isolate;}.cls-2{fill:#875a5a;}.cls-3{opacity:0.4;}.cls-3,.cls-5{mix-blend-mode:multiply;}.cls-4{fill:#efc3bd;}.cls-5{opacity:0.6;}.cls-6{fill:#d89891;}.cls-7{fill:#c67f79;}.cls-8{fill:#fbb03b;}.cls-9{fill:#363a46;}.cls-10{fill:#0a1045;}</style></defs><g class="cls-1"><g id="Layer_2" data-name="Layer 2"><g id="Layer_1-2" data-name="Layer 1"><path class="cls-2" d="M18.6217,6.3614A3.7477,3.7477,0,0,0,15.9363,0,9.2124,9.2124,0,0,0,12.72.68c-6.9959,2.6674.1452,18.5721.9794,22.0812L15.2856,12.2a8.9483,8.9483,0,0,1,2.4283-4.9037Z"/><g class="cls-3"><path d="M9.9764,9.97c.9013,5.1042,3.2072,10.6508,3.6593,12.5538L15.2215,11.963A8.9479,8.9479,0,0,1,17.55,7.1651l-1.5425-.4639S14.3527,5.266,12.9925,7.8329A5.2355,5.2355,0,0,1,9.9764,9.97Z"/></g><path class="cls-2" d="M15.74,14.7375c2.5945,6.7088,8.5439,3.0426,8.5439,3.0426l6.0725-8.5842.3231-.4571s.9249-1.3612-1.0017-4.0582c-.0148-.0207-.03-.0413-.0453-.062C27.6784,1.9719,22.9544,1.2223,20.2781,2.37,17.5812,3.5252,12.605,6.629,15.74,14.7375Z"/><polygon class="cls-4" points="19.965 14.514 19.347 23.754 19.965 37.372 26.93 37.372 27.928 24.546 26.536 23.754 25.346 14.589 19.965 14.514"/><g class="cls-5"><path class="cls-6" d="M20.9735,14.5278s-1.6261,6.0528,5.2259,6.6337l-.8532-6.5722Z"/></g><path class="cls-4" d="M19.9643,15.0855a4.4222,4.4222,0,0,0,2.5315,3.7637c2.432.9889,4.4384,2.1512,5.7061,1.6755s2.8654-6.1839,2.7-6.8153a10.5665,10.5665,0,0,1,0-3.4268l.0089-.0413a4.7336,4.7336,0,0,0,.0935-.6107c.0759-1.0087-.3181-2.4793-3.5282-4.8433,0,0,.0394.5408-.9644,1.3268s-5.3869,4.3005-5.4391,6.504c0,0-.6344-2.7108-2.4822-1.97S17.3255,14.61,19.9643,15.0855Z"/><ellipse cx="25.8379" cy="11.9603" rx="0.344" ry="0.6117"/><path class="cls-2" d="M24.1091,10.8287a2.7662,2.7662,0,0,1,1.4991-.75,4.7276,4.7276,0,0,1,1.4669-.0379l-.0056-.0282a.8974.8974,0,0,0-.8924-.7263l-.0311.0006a2.5546,2.5546,0,0,0-2.171,1.3308.1443.1443,0,0,0,.1341.2114Z"/><path class="cls-2" d="M28.8953,10.0571a4.7487,4.7487,0,0,1,1.4677.0384,2.67,2.67,0,0,1,.5477.1458,4.7336,4.7336,0,0,0,.0935-.6107,2.4844,2.4844,0,0,0-1.179-.3271c-.0109,0-.0217,0-.0315-.0009a.8992.8992,0,0,0-.8924.7269Z"/><path class="cls-7" d="M28.3879,15.2015l-.0129-.1966a1.4953,1.4953,0,0,0,1.1186-.3957.4278.4278,0,0,0,.103-.2885l-.6472-1.2073.1736-.0932.6663,1.253a.6044.6044,0,0,1-.1362.4518A1.7,1.7,0,0,1,28.3879,15.2015Z"/><path class="cls-7" d="M29.38,16.4694H27.0751A1.5666,1.5666,0,0,0,29.38,16.4694Z"/><path class="cls-2" d="M20.9735,6.5373v6.0805l1.7031-2.2912a5.5054,5.5054,0,0,0,1.0126-1.7887l.47.8323h1.1318L26.36,7.3224,27.048,9.37h.4029l.6678-2.8033.43,2.8033h1.2155l.4087-1.6952.8727,1.5209.3231-.4571s.4124-2.9526-1.0017-4.0582a4.8741,4.8741,0,0,0-2.6438-.4757C24.4929,4.2049,20.9735,6.5373,20.9735,6.5373Z"/><ellipse cx="30.0487" cy="11.9774" rx="0.344" ry="0.6117"/><path class="cls-8" d="M9.5837,42.0825l3.8135,15.9853h17.75l3.09-16.9732s1.3948-2.1641,1.251-6.4449c-.1291-3.8267,3.0281-6.9385-2.022-8.285-2.4556-.655-6.9432-3.609-6.9432-3.609H19.3346s-7.2023,2.9953-9.5052,3.609C4.78,27.7112,9.5837,42.0825,9.5837,42.0825Z"/><g class="cls-3"><path d="M14.4613,36.0278c5,15.23-1.9415,19.0447-1.9415,19.0447L8.68,38.9333S13.6866,33.6683,14.4613,36.0278Z"/></g><path class="cls-4" d="M26.45,22.6972A2.6066,2.6066,0,0,1,23.9756,26.38c-1.9515,0-4.641-1.6247-4.641-3.7188Z"/><path class="cls-9" d="M53.6693,140.4517a2.3285,2.3285,0,0,0-1.9354-2.3338c-2.1061-.6262-4.7814-.6831-6.0337-5.6922H39.6664l.3143,1.547a9.4594,9.4594,0,0,1-.0293,3.862,10.3279,10.3279,0,0,0-.285,2.617Z"/><path class="cls-9" d="M.0033,140.4517a2.3285,2.3285,0,0,1,1.9354-2.3338c2.1061-.6262,4.4-.2277,4.8054-5.6922h6.0338l.0333,2.3542a6.2545,6.2545,0,0,0,.4059,2.1267,9.9353,9.9353,0,0,1,.789,3.5451Z"/><path class="cls-10" d="M13.3972,58.0678S9.4405,65.7018,9.0223,72.633s-4.3351,61.3654-4.3351,61.3654h8.7835L23.44,78.8448l7.7074-20.777Z"/><path class="cls-10" d="M31.1472,58.0678s3.4862,11.6571,4.2277,14.4672c1.9849,7.5217,12.16,61.4634,12.16,61.4634H38.7514L22.5468,79.0392l-9.15-20.9714Z"/><path class="cls-8" d="M14.6133,36.7853a12.13,12.13,0,0,0-1.3366-6.9718c-1.0556-1.9911-2.529-3.8539-4.16-3.2092-3.2135,1.27-2.9953,3.9558-3.2043,9.6492S5.7416,49.694,7.1853,51.3312a3.5008,3.5008,0,0,0,6.0207-1.6879C13.4317,47.8,14.18,40.842,14.6133,36.7853Z"/><g class="cls-3"><path d="M27.6424,67.7272s2.886,23.3546,1.1082,32.3528L23.1791,81.6817l-.6323-2.6425Z"/></g><path class="cls-8" d="M38.4915,43.6064c.1375-4.8328-.0208-15.68-3.8178-16.82,0,0-4.0672.6077-3.8241,5.9062a106.0064,106.0064,0,0,0,.7322,10.8068,4.2384,4.2384,0,0,0,3.5866,3.3328A3.2807,3.2807,0,0,0,38.4915,43.6064Z"/><path class="cls-4" d="M32.2635,40.384,27.4821,40.23l-2.0379,2.16s-10.62,1.8463-14.11,2.2095a5.1033,5.1033,0,0,0-2.969,1.343,4.0946,4.0946,0,0,0-1.1286,4.4577,2.7891,2.7891,0,0,0,2.9729,1.949c2.2048-.2526,16.6034-6.924,16.6034-6.924l.351.0695a2.263,2.263,0,0,0,1.8507-.452l2.6177-1.1175Z"/><g class="cls-5"><polygon class="cls-6" points="27.482 40.23 31.632 43.926 32.264 40.384 27.482 40.23"/></g><path class="cls-4" d="M26.8085,20.5929l3.1633-1.5161,3.8208,3.5371,2.1336,4.8119,2.5966,16.571a3.7856,3.7856,0,0,1-1.5645,2.9824c-1.7856,1.0122-3.8239.8991-5.1776-2.0406-.3481-.756.6728-18.9251.6728-18.9251h0a2.7483,2.7483,0,0,1-2.4479-2.1011l-.349-1.5759-2.2727.0332Z"/><g class="cls-5"><polygon class="cls-6" points="29.657 22.337 29.972 19.077 26.808 20.593 27.384 22.37 29.657 22.337"/></g></g></g></g></svg>