<svg xmlns="http://www.w3.org/2000/svg" width="64.001" height="64">
  <path fill="none" d="M0 0H64.001V64H0z"/>
  <path fill="#FFD7A5" d="M12.375,33.829l11.883,4.913c0,0-1.543,2.56-4.077,6.824c-4.603,7.746-1.827,11.873,1.584,12.436 l5.718-9.249L43.926,36h14.072l0.029-21.001L43.911,15c0,0-3.626-1.499-8.25-3.218c-8.421-3.13-12.55-2.982-14.632-2.33 c-1.363,0.427-1.481,2.259-1.481,2.259l4.006,7.961L12.375,33.829z"/>
  <path fill="#FFD7A5" d="M28.536,11.766l-5.367-2.207c-1.688-0.685-3.617,0.124-4.303,1.809c-0.685,1.69,0.123,3.616,1.811,4.305 l-3.705-1.515c-1.695-0.668-3.607,0.169-4.272,1.867c-0.67,1.695,0.169,3.609,1.862,4.271l-2.711-1.112 c-1.688-0.685-3.613,0.132-4.295,1.821c-0.688,1.686,0.131,3.611,1.822,4.294l0.598,0.246c-1.717-0.718-3.693,0.093-4.408,1.814 c-0.715,1.717,0.094,3.69,1.814,4.406l8.156,3.347c1.719,0.715,3.691-0.097,4.406-1.815c0.714-1.717-0.095-3.688-1.813-4.406 l2.43,0.997c1.688,0.68,3.609-0.132,4.293-1.819c0.686-1.69-0.131-3.611-1.82-4.296l1.469,0.603 c1.697,0.664,3.609-0.169,4.277-1.867c0.664-1.696-0.168-3.61-1.865-4.275l-0.866-0.355c1.684,0.684,3.609-0.127,4.296-1.813 C31.03,14.38,30.224,12.452,28.536,11.766z"/>
  <path opacity=".4" fill="#D48936" d="M28.536,11.766l-1.928-0.793c1.288,0.867,1.839,2.611,1.236,4.091 c-0.657,1.613-2.446,2.41-4.075,1.878l1.518,0.623l-0.254-0.104c1.269,0.86,1.824,2.572,1.247,4.046 c-0.642,1.633-2.434,2.452-4.08,1.922l2.303,0.945c1.697,0.664,3.609-0.169,4.277-1.867c0.664-1.696-0.168-3.61-1.865-4.275 l-0.866-0.355c1.684,0.684,3.609-0.127,4.296-1.813C31.03,14.38,30.224,12.452,28.536,11.766z M23.034,23.771l-1.907-0.782 c1.277,0.869,1.827,2.6,1.227,4.078c-0.655,1.617-2.445,2.414-4.078,1.882l2.285,0.938c1.688,0.68,3.609-0.132,4.293-1.819 C25.54,26.377,24.724,24.456,23.034,23.771z M18.128,28.888l-2.375-0.974c1.701,0.726,2.402,2.673,1.691,4.382 c-0.682,1.639-2.507,2.437-4.167,1.887l2.26,0.928c1.719,0.715,3.691-0.097,4.406-1.815 C20.659,31.578,19.849,29.604,18.128,28.888z"/>
  <path opacity=".25" fill="#D48936" d="M18.817 27.448L7.634 22.859c-.098-.039-.182-.097-.273-.144.165 1.119.891 2.127 2.018 2.582l8.899 3.651c1.633.532 3.423-.265 4.078-1.882.063-.156.1-.315.139-.473C21.59 27.591 20.136 27.979 18.817 27.448zM13.796 32.672l-8.158-3.347c-.1-.042-.185-.101-.279-.15.176 1.117.9 2.122 2.023 2.589l5.896 2.419c1.659.55 3.485-.248 4.167-1.887.069-.165.111-.333.152-.501C16.667 32.836 15.156 33.238 13.796 32.672zM22.761 21.935l-9.939-4.078c-.108-.042-.202-.103-.303-.154.166 1.132.905 2.147 2.045 2.593l7.637 3.133c1.646.529 3.438-.289 4.08-1.922.056-.142.086-.287.121-.431C25.507 22.06 24.072 22.449 22.761 21.935zM24.302 15.436l-5.367-2.203c-.094-.038-.175-.094-.264-.14.166 1.116.886 2.121 2.006 2.578l3.094 1.27c1.629.532 3.417-.265 4.075-1.878.064-.158.103-.32.142-.481C27.082 15.584 25.622 15.975 24.302 15.436zM34.438 25.045l.938-.347-.694-1.876-.938.348c-9.602 3.551-11.199 12.576-11.447 14.754l1.944.806.01-.243C24.256 38.39 24.772 28.62 34.438 25.045z"/>
  <path opacity=".3" fill="#D48936" d="M27.482,48.753L43.926,36h14.072l0.003-2H43.222l-17.26,13.409 c0,0-3.994,6.594-5.108,10.339c0.296,0.111,0.599,0.203,0.911,0.254L27.482,48.753z"/>
</svg>
