<svg xmlns="http://www.w3.org/2000/svg" width="64.001" height="64">
  <path fill="none" d="M0 0H64.001V64H0z"/>
  <path fill="#FFD7A5" d="M56.619,31.145l-1.13-0.463l0.002-0.001l-15.715-6.448c0,0,1.512-2.535,4.046-6.8 c4.603-7.746,1.827-11.873-1.584-12.436l-5.718,9.249L20.077,27H6.001v21.001L20.092,48c0,0,3.626,1.497,8.25,3.216 c8.421,3.13,12.625,2.88,14.707,2.228c0.031-0.01,0.052-0.028,0.081-0.039c0.876-0.296,1.628-0.942,2.003-1.864 c0.688-1.69-0.123-3.616-1.811-4.305l-1.141-0.469l-0.002-0.004l4.848,1.987c1.697,0.668,3.609-0.169,4.273-1.867 c0.668-1.695-0.17-3.61-1.865-4.271l-5.469-2.244l0.001,0l8.181,3.357c1.688,0.685,3.615-0.132,4.297-1.821 c0.686-1.687-0.131-3.611-1.822-4.294l-4.957-2.034l0,0l4.359,1.788c1.715,0.718,3.691-0.093,4.408-1.813 C59.148,33.834,58.338,31.86,56.619,31.145z"/>
  <path opacity=".4" fill="#D48936" d="M35.221,40.401c-0.664,1.696,0.166,3.61,1.865,4.275l2.257,0.925 c-1.539-0.746-2.255-2.584-1.623-4.2c0.64-1.633,2.433-2.451,4.078-1.923l-2.302-0.945C37.801,37.87,35.887,38.703,35.221,40.401z M39.354,45.607l-1.399-0.574c-1.686-0.688-3.611,0.124-4.299,1.812c-0.686,1.684,0.119,3.611,1.807,4.298l2.475,1.017 c-1.684-0.688-2.466-2.633-1.782-4.315c0.605-1.485,2.177-2.305,3.694-2.012l-0.284-0.116 C39.49,45.687,39.426,45.642,39.354,45.607z M39.145,34.841c-0.684,1.69,0.133,3.611,1.822,4.296l0.838,0.344 c0.063,0.021,0.128,0.029,0.191,0.053l1.021,0.419c-1.379-0.826-1.993-2.579-1.373-4.112c0.657-1.617,2.446-2.414,4.079-1.882 l-2.285-0.937C41.752,32.342,39.83,33.153,39.145,34.841z M50.723,28.726l-2.262-0.928c-1.717-0.715-3.689,0.097-4.406,1.814 c-0.713,1.718,0.096,3.691,1.818,4.408l2.509,1.029c-1.635-0.767-2.521-2.766-1.827-4.437 C47.239,28.973,49.065,28.175,50.723,28.726z"/>
  <path opacity=".25" fill="#D48936" d="M48.382,35.05l-0.111-0.045c0,0,0,0,0,0l5.754,2.36c1.229,0.514,2.585,0.234,3.522-0.594 c-0.144-0.039-0.289-0.072-0.43-0.131l-8.152-3.344c-1.366-0.569-2.136-1.931-2.045-3.328c-0.141,0.198-0.267,0.41-0.365,0.645 C45.861,32.284,46.747,34.282,48.382,35.05z M38.557,50.418c-1.339-0.545-2.101-1.872-2.024-3.237 c-0.145,0.205-0.278,0.422-0.376,0.664c-0.684,1.68,0.097,3.622,1.776,4.312l2.907,1.195c1.21,0.488,2.537,0.199,3.446-0.621 c-0.121-0.034-0.243-0.058-0.362-0.106L38.557,50.418z M44.059,38.412c-1.343-0.544-2.112-1.871-2.034-3.242 c-0.147,0.206-0.28,0.425-0.38,0.67c-0.606,1.499-0.028,3.202,1.286,4.049c0.141,0.084,0.281,0.168,0.437,0.232l8.78,3.603 c1.21,0.491,2.537,0.2,3.446-0.622c-0.118-0.033-0.237-0.056-0.353-0.103L44.059,38.412z M40.178,43.952 c-1.36-0.533-2.142-1.869-2.066-3.251c-0.153,0.215-0.29,0.443-0.391,0.701c-0.609,1.556,0.04,3.306,1.46,4.101 c0.097,0.051,0.188,0.111,0.292,0.153l7.555,3.096c1.206,0.475,2.512,0.179,3.41-0.635c-0.106-0.03-0.212-0.048-0.317-0.089 L40.178,43.952z"/>
  <path opacity=".3" fill="#D48936" d="M40.832,53.35l-4.666-1.918c-1.886-0.367-4.225-1.012-7.127-2.091 c-4.627-1.72-8.256-3.058-8.256-3.058L20.448,46L6.001,46.001v2L20.092,48c0,0,3.626,1.497,8.25,3.216 c8.421,3.13,12.625,2.88,14.707,2.228c0.037-0.012,0.065-0.031,0.1-0.045C42.419,53.651,41.602,53.662,40.832,53.35z M44.897,6.419c0.536,2.042-0.01,5.727-2.544,9.991c-2.521,4.242-3.252,5.453-3.256,5.46l-1.298,2.167l-0.018,0.017 c0.323,6.105-3.419,11.696-9.313,13.915l-0.936,0.352l0.705,1.872l0.935-0.353c6.617-2.49,10.844-8.731,10.61-15.591l-0.018-0.002 c0.05-0.083,1.567-2.621,4.059-6.815C47.076,11.955,46.636,8.296,44.897,6.419z"/>
</svg>
